<svg xmlns="http://www.w3.org/2000/svg" xmlns:xlink="http://www.w3.org/1999/xlink" version="1.1" viewBox="310 635 100 100" x="0px" y="0px"><g><g style="" fill="rgb(0,0,0)" fill-opacity="1.0" stroke-linejoin=" miter"><path d="M380.18912,733.9291L380.18912,733.93Q378.63995,736.1668,376.44727,739.41003Q376.09406,739.97864,375.7134,740.73004Q378.93552,736.3263,380.18912,733.9291 Z"></path></g><g style="" fill="rgb(0,0,0)" fill-opacity="1.0" stroke-linejoin=" miter"><path d="M380.2075,733.9015L380.20718,733.90204L380.20715,733.90216L380.2071,733.9022L380.20697,733.90247L380.20718,733.90295L380.2075,733.90344L380.2075,733.9015 Z"></path></g><g style="" fill="rgb(0,0,0)" fill-opacity="1.0" stroke-linejoin=" miter"><path d="M346.83682,745.91864L346.83682,745.9191L346.83682,745.91956L346.8369,745.92053L346.837,745.91956L346.837,745.92053L346.8369,745.91956L346.83682,745.91864 Z"></path></g><g style="" fill="rgb(0,0,0)" fill-opacity="1.0" stroke-linejoin=" miter"><path d="M346.84024,745.91864L346.8386,745.9191L346.83698,745.91956L346.83698,745.92053Q346.83765,745.9233,346.83826,745.9263Q346.84018,745.93616,346.845,745.9593Q346.8507,745.9856,346.85077,745.98566L346.8529,745.9865L346.85278,745.97833L346.8523,745.97034L346.8519,745.96643L346.8515,745.9625L346.85037,745.95483L346.84903,745.94727Q346.84808,745.9436,346.84726,745.94L346.84525,745.9326L346.84296,745.92554L346.84024,745.91864 Z"></path></g><g style="" fill="rgb(0,0,0)" fill-opacity="1.0" stroke-linejoin=" miter"><path d="M379.77145,734.5327L379.4501,734.99963Q378.14062,736.90466,376.44727,739.41003Q375.98535,740.16943,375.66818,740.8212Q376.51825,739.6749,376.9977,738.97Q377.59665,738.10474,378.30307,737.04016L379.77145,734.5327 Z"></path></g><g style="" fill="rgb(0,0,0)" fill-opacity="1.0" stroke-linejoin=" miter"><path d="M382.65015,739.30457L382.64865,739.3049Q382.64246,739.30634,382.63254,739.31287Q382.63522,739.3218,382.6382,739.3307Q382.64346,739.3463,382.646,739.3531L382.646,739.35406L382.65015,739.34424L382.6535,739.3355L382.65604,739.3278L382.65775,739.3212L382.6586,739.31573L382.6587,739.31134L382.65796,739.308L382.65637,739.3057L382.654,739.30457L382.65015,739.30554 Z"></path></g><g style="" fill="rgb(0,0,0)" fill-opacity="1.0" stroke-linejoin=" miter"><path d="M392.28223,739.0849L392.2764,739.09296L392.23004,739.1565L392.23395,739.1575Q392.24384,739.2775,392.25156,739.3525Q392.262,739.2615,392.26843,739.21387Q392.27643,739.15344,392.2861,739.0849L392.28223,739.0859 Z"></path></g><g style="" fill="rgb(0,0,0)" fill-opacity="1.0" stroke-linejoin=" miter"><path d="M355.62234,651.2736L362.58383,659.0918Q363.6686,660.0478,364.7395,659.19336L370.1166,652.5094L371.81067,659.3325Q372.08008,660.0121,372.5938,660.2333Q373.08777,660.4543,373.55896,660.35065L381.91232,658.23145L378.4432,665.85974Q378.23114,666.5757,378.49475,667.0526Q378.67624,667.45276,379.19864,667.7494L387.22873,670.9876L380.71194,673.7464Q380.19534,674.03564,380.01196,674.4695Q379.78345,674.94366,379.96948,675.60345L382.13516,680.5928L373.47107,675.99976Q373.185,675.8473,372.83548,675.82556L339.89774,675.59076Q339.56625,675.6264,339.3742,675.7256L331.98297,679.13446L333.72528,676.1061Q333.96335,675.2664,333.60373,674.7651Q333.267,674.29663,332.89728,674.1577L328.53827,673.03674L334.30457,668.9349Q334.6807,668.7392,334.78674,667.75323Q334.7717,667.4152,334.60388,667.10504Q332.1288,663.088,331.85883,662.4576Q331.123,661.0175,331.03867,660.4987Q332.23126,660.2191,340.56036,663.15094Q340.97836,663.2705,341.48413,663.0948Q342.38528,662.86505,342.42242,661.4285L340.005,652.5005L350.34406,658.85925Q350.7648,659.10974,351.23334,659.0799Q351.94467,659.0669,352.46423,658.28925L355.62234,651.2736 M355.2646,647.0177L355.14346,647.0207Q354.12692,647.19507,353.8805,647.79663L350.4624,655.387L338.21603,647.8629Q337.1294,647.40204,336.32645,648.3318Q335.94467,648.9751,336.05646,649.4872L338.72974,659.3278Q330.77115,656.4321,328.93597,658.0755Q327.6438,659.0967,328.08206,660.9184Q327.9514,662.0296,331.24377,667.4207L324.053,672.51013Q323.76138,672.72485,323.55417,673.2591Q323.33496,674.5346,324.35455,675.05817L330.0071,676.5268L326.89163,681.8945Q326.59015,682.8555,327.05045,683.3981Q327.7101,684.203,328.69653,683.9575L340.3326,678.6089L342.29764,678.624Q341.8363,677.68726,342.01486,677.0854Q342.5474,676.1476,343.46127,676.10486Q344.3982,676.30396,344.71393,676.8269Q345.0532,677.8533,344.5331,678.64026L372.38342,678.84064L384.53308,685.28143Q384.94855,685.47595,385.23984,685.45734Q386.5994,685.5233,386.71976,683.6462L383.38373,675.8915L391.91028,672.27844Q392.64886,671.76715,392.6949,671.10803Q392.81305,670.2427,391.8875,669.6169L381.88458,665.5796L386.01733,656.4856Q386.2144,655.6563,385.84863,655.1478Q385.22308,654.36444,384.34192,654.5045L374.3491,657.0358L372.2725,648.6829Q371.65118,647.5701,370.84772,647.6727Q369.9792,647.7832,369.74506,648.15125L363.65067,655.74915L356.25348,647.4473Q355.63474,646.97253,355.2646,647.0177 Z"></path></g><g style="" fill="rgb(0,0,0)" fill-opacity="1.0" stroke-linejoin=" miter"><path d="M333.58685,681.6337L333.58685,681.6337L333.58685,681.6347L333.58615,681.6809C333.49854,684.54425,333.42224,687.189,333.56436,688.41034L333.56436,688.4104C333.59988,688.7157,333.64062,688.83575,333.647,688.85187L333.64703,688.852C333.58655,688.6989,333.26025,688.3307,332.7669,688.3307L332.7669,688.3307C332.7257,688.3307,332.69888,688.3343,332.70416,688.3336L332.70575,688.33344C332.7098,688.33295,332.72424,688.3308,332.77457,688.32227L332.77936,688.3215L332.78046,688.3213C332.86566,688.30707,332.9519,688.30023,333.03827,688.3008L333.03827,688.3008L381.39697,688.6089L381.27682,688.6129C382.55884,688.5188,382.421,688.38855,382.41336,688.40814L382.41336,688.40814C382.63416,687.8407,382.5108,686.3904,382.25375,684.2165C382.15582,683.3884,382.74774,682.6377,383.5758,682.5398C384.40387,682.4419,385.15454,683.0338,385.25247,683.8619L385.25247,683.8619C385.45694,685.59094,385.79514,688.0442,385.2274,689.50323L385.2274,689.50323C384.43106,691.5496,382.25467,691.56885,381.4979,691.6244L381.37775,691.6284L333.01904,691.3203L333.27686,691.2998L333.27576,691.3L333.28055,691.2992C333.2408,691.30597,333.15738,691.3203,333.0722,691.33075L333.0738,691.33057C332.99594,691.34015,332.88943,691.35034,332.7669,691.35034L332.7669,691.35034C331.87497,691.35034,331.1776,690.8192,330.83875,689.96173L330.83878,689.96185C330.69702,689.6032,330.6155,689.19366,330.56497,688.7593L330.56497,688.75934C330.39014,687.2567,330.48468,684.3101,330.56796,681.5885L330.56726,681.6347L330.56726,681.6337C330.56726,680.79987,331.24323,680.1239,332.07706,680.1239C332.9109,680.1239,333.58685,680.79987,333.58685,681.6337 Z"></path></g><g style="" fill="rgb(0,0,0)" fill-opacity="1.0" stroke-linejoin=" miter"><path d="M345.0807,679.14923L345.0807,679.14923L344.71964,679.51135L344.79056,679.4351L344.4553,679.8213L344.5209,679.74023L344.2131,680.1486L344.273,680.0632L343.99417,680.4918L344.04803,680.4024L343.79947,680.8493L343.84695,680.7565L343.62982,681.2195L343.67084,681.12354L343.4862,681.6004L343.5205,681.5019L343.36926,681.99036L343.39664,681.88965L343.27948,682.38745L343.29987,682.2851L343.21738,682.7898L343.23065,682.6864L343.1832,683.19556L343.18927,683.0914L343.1771,683.6026L343.17596,683.49774L343.19952,684.01337L343.19104,683.9084L343.2505,684.42114L343.2347,684.3171L343.32974,684.8244L343.30676,684.7216L343.43692,685.22107L343.40683,685.1201L343.5715,685.6093L343.53445,685.5108L343.73282,685.98737L343.68893,685.8915L343.92004,686.35297L343.8697,686.2606L344.13242,686.70496L344.07562,686.61615L344.36868,687.041L344.30606,686.95667L344.628,687.36017L344.55933,687.28L344.90863,687.66003L344.83472,687.585L345.20966,687.93976C345.81537,688.5128,345.84183,689.46844,345.26877,690.07416C344.6957,690.6799,343.7401,690.7063,343.1344,690.13324L343.1344,690.13324L342.75946,689.7785L342.68555,689.7035L342.33624,689.3235L342.26758,689.24335L341.94565,688.83984L341.88303,688.7555L341.58997,688.3306L341.53317,688.2418L341.27045,687.7975L341.2201,687.70514L340.98898,687.24365L340.9451,687.14777L340.74673,686.6712L340.7097,686.5727L340.545,686.0835L340.51492,685.98254L340.38477,685.4831L340.3618,685.3803L340.26675,684.873L340.25098,684.7689L340.19153,684.25616L340.18304,684.1512L340.1595,683.63556L340.15836,683.5307L340.17053,683.0195L340.1766,682.9153L340.22406,682.4061L340.23734,682.30273L340.31982,681.79803L340.3402,681.6957L340.45737,681.1979L340.48474,681.09717L340.636,680.6087L340.6703,680.5102L340.85492,680.0333L340.89594,679.9374L341.11307,679.47437L341.16055,679.38153L341.40912,678.93463L341.46298,678.8452L341.74182,678.41656L341.80173,678.3311L342.10953,677.9227L342.17514,677.8417L342.5104,677.4555L342.58133,677.3793L342.94238,677.01715C343.53113,676.42664,344.48706,676.4253,345.07755,677.01404C345.66803,677.6028,345.66943,678.5587,345.0807,679.14923 Z"></path></g><g style="" fill="rgb(0,0,0)" fill-opacity="1.0" stroke-linejoin=" miter"><path d="M372.47693,676.7863L372.47693,676.7863L372.84012,677.1338L372.9121,677.2075L373.25076,677.579L373.31744,677.65735L373.62997,678.05096L373.69128,678.13385L373.97626,678.5479L374.03168,678.6346L374.28778,679.0671L374.33725,679.1576L374.56323,679.60657L374.60635,679.7L374.80124,680.1634L374.83792,680.25964L375.00073,680.73517L375.03073,680.8337L375.16077,681.3192L375.184,681.41956L375.2806,681.9128L375.29697,682.01447L375.35974,682.5132L375.3691,682.6157L375.39774,683.11755L375.4001,683.22034L375.3945,683.7221L375.38986,683.82495L375.3501,684.3252L375.33847,684.4273L375.26477,684.9237L375.2462,685.02484L375.13885,685.5151L375.1135,685.6147L374.97308,686.09644L374.94095,686.19415L374.76804,686.6653L374.7293,686.76056L374.52475,687.21875L374.4797,687.3111L374.24442,687.7544L374.19315,687.84357L373.92825,688.2698L373.87097,688.3552L373.57767,688.7624L373.51486,688.8436L373.19455,689.2299L373.1262,689.3069L372.7803,689.6705C372.20557,690.2746,371.24994,690.2984,370.6458,689.7237C370.0417,689.149,370.01782,688.1933,370.59256,687.5892L370.59256,687.5892L370.93845,687.2256L370.8701,687.30255L371.1904,686.91626L371.1276,686.9975L371.4209,686.59033L371.36362,686.6758L371.6285,686.2496L371.57724,686.33875L371.81253,685.89545L371.7675,685.9878L371.97205,685.5296L371.93332,685.6249L372.10623,685.15375L372.0741,685.25146L372.2145,684.7697L372.18915,684.8693L372.29648,684.3791L372.2779,684.4802L372.3516,683.9838L372.33997,684.08594L372.37973,683.5857L372.3751,683.68854L372.38068,683.18677L372.38303,683.28955L372.3544,682.7877L372.36377,682.89026L372.301,682.39154L372.31735,682.4932L372.22073,682.0L372.24396,682.10034L372.11392,681.6148L372.14392,681.7133L371.9811,681.2378L372.0178,681.33405L371.8229,680.87067L371.86603,680.9641L371.64005,680.51514L371.6895,680.60565L371.4334,680.17316L371.48883,680.2598L371.20386,679.84576L371.26517,679.92865L370.95264,679.53503L371.01932,679.6134L370.68066,679.24194L370.75266,679.3157L370.38947,678.9682C369.78696,678.3918,369.7658,677.43604,370.34225,676.83356C370.9187,676.2311,371.87442,676.2099,372.47693,676.7863 Z"></path></g><g style="" fill="rgb(0,0,0)" fill-opacity="1.0" stroke-linejoin=" miter"><path d="M372.0423,687.6869L372.0423,687.6869L372.0423,687.6869L372.0423,687.6869L372.0423,687.6869L372.0423,687.6869L372.0423,687.6869L372.0423,687.6869L372.0423,687.6869L372.0423,687.6869 M372.0423,690.70654L372.0423,690.70654L372.0423,690.70654L372.0423,690.70654L372.0423,690.70654L372.0423,690.70654L372.0423,690.70654L372.0423,690.70654L372.0423,690.70654 Z"></path></g><g style="" fill="rgb(0,0,0)" fill-opacity="1.0" stroke-linejoin=" miter"><path d="M336.78525,655.5107L336.78525,655.5107L336.78525,655.5107L336.78525,655.5107L336.78525,655.5107L336.78525,655.5107L336.78525,655.5107L336.78525,655.5107L336.78525,655.5107L336.78525,655.5107 M336.78525,658.53033L336.78525,658.53033L336.78525,658.53033L336.78525,658.53033L336.78525,658.53033L336.78525,658.53033L336.78525,658.53033L336.78525,658.53033L336.78525,658.53033 Z"></path></g><g style="" fill="rgb(0,0,0)" fill-opacity="1.0" stroke-linejoin=" miter"><path d="M347.31512,677.97986L347.31512,677.97986L341.05334,678.4928C340.42368,678.5444,339.87143,678.07574,339.81985,677.4461C339.76828,676.81647,340.2369,676.2642,340.86658,676.21265L340.86658,676.21265L347.12836,675.6997C347.75803,675.64813,348.31027,676.11676,348.36185,676.7464C348.41342,677.37604,347.9448,677.9283,347.31512,677.97986 Z"></path></g><g style="" fill="rgb(0,0,0)" fill-opacity="1.0" stroke-linejoin=" miter"><path d="M338.50238,660.52124L338.50238,660.52124L338.50238,660.5222C338.50238,661.154,337.99023,661.66614,337.35846,661.66614C336.72668,661.66614,336.21454,661.154,336.21454,660.5222L336.21454,660.5222L336.21454,660.52124C336.21454,659.88947,336.72668,659.3773,337.35846,659.3773C337.99023,659.3773,338.50238,659.88947,338.50238,660.52124 Z"></path></g><g style="" fill="rgb(0,0,0)" fill-opacity="1.0" stroke-linejoin=" miter"><path d="M321.9993,634.0451L321.9993,634.0451L321.9993,634.0451L321.9993,634.0451L321.9993,634.0451L321.9993,634.0451L321.9993,634.0451L321.9993,634.0451L321.9993,634.0451L321.9993,634.0451 M321.9993,637.05304L321.9993,637.05304L321.9993,637.05304L321.9993,637.05304L321.9993,637.05304L321.9993,637.05304L321.9993,637.05304L321.9993,637.05304L321.9993,637.05304 Z"></path></g><g style="" fill="rgb(0,0,0)" fill-opacity="1.0" stroke-linejoin=" miter"><path d="M334.8419,688.96674L334.8419,688.96674L334.8419,688.96674L334.8419,688.96674L334.8419,688.96674L334.8419,688.96674L334.8419,688.96674L334.8419,688.96674L334.8419,688.96674L334.8419,688.96674 M334.8419,691.9604L334.8419,691.9604L334.8419,691.9604L334.8419,691.9604L334.8419,691.9604L334.8419,691.9604L334.8419,691.9604L334.8419,691.9604L334.8419,691.9604 Z"></path></g><g style="" fill="rgb(0,0,0)" fill-opacity="1.0" stroke-linejoin=" miter"><path d="M334.68326,689.50653C334.25797,689.50653,333.83548,689.6868,333.5394,690.03705L333.13226,690.5186C333.10892,690.54626,333.0866,690.57465,333.06534,690.6039L332.6941,691.11365C332.67285,691.1429,332.65265,691.17285,332.63354,691.2035L332.30017,691.73883C332.28107,691.7695,332.2631,691.80084,332.24625,691.8328L331.95248,692.39087C331.93564,692.4228,331.91998,692.4554,331.9055,692.48846L331.65286,693.0663C331.6384,693.0994,331.62512,693.133,331.61307,693.16705L331.4029,693.76166C331.39087,693.7957,331.38007,693.8302,331.3705,693.86505L331.2039,694.47327C331.19434,694.5081,331.18607,694.54333,331.17908,694.57874L331.0569,695.19745C331.0499,695.2329,331.04416,695.26855,331.03976,695.30444L330.96265,695.9303C330.95822,695.9662,330.9551,696.0022,330.9533,696.03827L330.9217,696.6681C330.91986,696.7042,330.91937,696.74036,330.92017,696.7764L330.93417,697.4069C330.935,697.44305,330.9371,697.4791,330.94052,697.5151L331.0001,698.1429C331.0035,698.1789,331.00824,698.2147,331.01425,698.25037L331.11908,698.8722C331.1251,698.9077,331.13235,698.94305,331.1409,698.9781L331.28976,699.5882C331.29828,699.6231,331.30807,699.6578,331.3191,699.692L331.51147,700.2898C331.52252,700.32404,331.53476,700.35785,331.54822,700.39124L331.78317,700.9736C331.79663,701.00696,331.8113,701.0398,331.82712,701.07214L332.10342,701.63605C332.11926,701.66833,332.13626,701.7001,332.15436,701.7312L332.47058,702.27374C332.4887,702.3048,332.50793,702.3352,332.52823,702.3649L332.8827,702.8833C332.903,702.91296,332.92438,702.94196,332.94678,702.9701L333.33765,703.4616C333.36005,703.48975,333.38345,703.5171,333.40784,703.5436L333.8331,704.0056C333.85745,704.0321,333.88278,704.0577,333.909,704.08234L334.36642,704.5125C334.39264,704.5372,334.41974,704.56085,334.44766,704.58356L334.9349,704.97974C334.96283,705.00244,334.99155,705.0241,335.02103,705.04474L335.53555,705.4047C335.56503,705.42535,335.59525,705.44495,335.62613,705.4634L336.16525,705.7854C336.19614,705.80383,336.2277,705.82117,336.25983,705.83734L336.82074,706.1197C336.9522,706.18585,337.08878,706.23083,337.22656,706.25586L337.22656,706.25684Q337.3273,706.1024,337.45367,705.9467C337.49896,705.89087,337.54843,705.8382,337.60138,705.78937Q338.23224,705.2079,338.68735,704.68414L338.6906,704.6851Q338.69965,704.6714,338.71777,704.64264L338.71786,704.6436L338.9142,704.3211L338.9176,704.3221C338.7986,703.95404,338.5386,703.6329,338.16672,703.4457L337.6542,703.1877L337.20755,702.9209L336.7815,702.6228L336.3781,702.29486L335.99902,701.93835L335.64706,701.5559L335.32352,701.1491L335.03003,700.72L334.76788,700.2702L334.53912,699.8032L334.34467,699.3213L334.18533,698.8263L334.06207,698.32117L333.97528,697.8063L333.92587,697.286L333.91428,696.764L333.9405,696.24225L334.0043,695.7244L334.10547,695.2121L334.24344,694.7084L334.41748,694.216L334.62665,693.73755L334.86987,693.27563L335.14612,692.832L335.4533,692.4101L335.82556,691.9698C336.35928,691.33844,336.28015,690.39404,335.64883,689.8603C335.36774,689.6227,335.0246,689.50653,334.68326,689.50653 Z"></path></g><g style="" fill="rgb(0,0,0)" fill-opacity="1.0" stroke-linejoin=" miter"><path d="M338.30023,704.05774C337.52182,704.05774,336.86478,704.6601,336.80878,705.4486L336.80878,705.44867C336.78214,705.82385,336.89618,706.1766,337.10608,706.4551L337.10608,706.45605Q337.12222,706.4259,337.13922,706.3967L337.13937,706.3965Q337.26923,706.17395,337.45367,705.9467C337.49896,705.89087,337.54843,705.8382,337.60138,705.78937Q338.23224,705.2079,338.68735,704.68414L338.6906,704.6851Q338.69965,704.6714,338.71777,704.64264L338.71786,704.6436L338.9762,704.2196L338.97958,704.2206C338.8066,704.1317,338.61356,704.0762,338.40787,704.0616C338.37177,704.059,338.33588,704.05774,338.30023,704.05774 Z"></path></g><g style="" fill="rgb(0,0,0)" fill-opacity="1.0" stroke-linejoin=" miter"><path d="M339.1178,705.20325L339.1178,705.20325L339.1178,705.2042C339.1178,706.0309,338.44766,706.70105,337.62097,706.70105C336.79428,706.70105,336.12415,706.0309,336.12415,705.2042L336.12415,705.2042L336.12415,705.20325C336.12415,704.3766,336.79428,703.7064,337.62097,703.7064C338.44766,703.7064,339.1178,704.3766,339.1178,705.20325 Z"></path></g><g style="" fill="rgb(0,0,0)" fill-opacity="1.0" stroke-linejoin=" miter"><path d="M339.63156,705.6888L339.63156,705.68884L339.63156,705.6888 Z"></path></g><g style="" fill="rgb(0,0,0)" fill-opacity="1.0" stroke-linejoin=" miter"><path d="M338.169,703.8669C337.48285,703.8669,336.86426,704.3416,336.7092,705.03925L336.7092,705.0393C336.66965,705.2172,336.66293,705.4009,336.68936,705.5812L337.32825,709.9396C337.3563,710.131,337.4212,710.3151,337.51935,710.4819L340.3833,715.34674C340.4602,715.47736,340.55652,715.5956,340.6689,715.69727L343.2402,718.0238C343.2898,718.06866,343.34232,718.11017,343.39746,718.148L347.41083,720.9024C347.46494,720.9395,347.52145,720.9731,347.57996,721.0028L351.4234,722.95496L356.78018,725.84656C357.00113,725.9659,357.24573,726.02625,357.49127,726.02625C357.67032,726.02625,357.84988,725.99414,358.02112,725.9293L366.77466,722.6157C366.8921,722.5713,367.00345,722.5122,367.10614,722.43994L371.2447,719.5278C371.3032,719.4866,371.35867,719.4413,371.4107,719.39215L375.61505,715.4239C375.7607,715.28644,375.87732,715.1211,375.95792,714.9377L378.34988,709.4959C378.36826,709.45416,378.38467,709.41156,378.39914,709.3683L379.5744,705.8539C379.83658,705.0699,379.41357,704.2218,378.62958,703.9596C378.4721,703.9069,378.31207,703.88196,378.15472,703.88196C377.52853,703.88196,376.94482,704.27795,376.7353,704.9045L375.5817,708.35406L373.33945,713.4552L369.4338,717.14154L369.4338,717.1425L365.53812,719.8828L365.53812,719.8838L357.60065,722.8875L357.60065,722.8885L357.60065,722.8875L357.60065,722.8885L357.60065,722.8875L357.60065,722.8885L352.8283,720.3114C352.81732,720.3054,352.80624,720.2997,352.79514,720.294L349.0232,718.3781L349.0232,718.3791L345.17435,715.73663L345.17435,715.7376L342.84702,713.6308L340.24777,709.2156L340.24777,709.21655L339.65137,705.147L339.6518,705.14795C339.56427,704.5504,339.11874,704.04144,338.49512,703.90283C338.38577,703.87854,338.27655,703.8669,338.169,703.8669 Z"></path></g><g style="" fill="rgb(0,0,0)" fill-opacity="1.0" stroke-linejoin=" miter"><path d="M343.9311,699.8401L343.9207,699.8458Q343.88937,699.86316,343.85822,699.8822L343.8375,699.8951L343.83972,699.89606L343.8606,699.88336L343.8711,699.8772Q343.8921,699.865,343.91342,699.8535Q343.92404,699.8479,343.93475,699.84235L343.93823,699.8433L343.93457,699.8401L343.9311,699.84106 Z"></path></g><g style="" fill="rgb(0,0,0)" fill-opacity="1.0" stroke-linejoin=" miter"><path d="M379.51804,689.46826C379.0115,689.46826,378.5173,689.7254,378.23593,690.1904C377.80798,690.8977,378.03442,691.818,378.7417,692.2459L379.17484,692.50806L379.5436,692.7695L379.89224,693.0567L379.89224,693.0577L380.21906,693.36835L380.52286,693.70325L380.8013,694.0589L381.0535,694.4342L381.27774,694.8266L381.47284,695.2339L381.63803,695.6545L381.77234,696.08594L381.77234,696.0869L381.87506,696.526L381.9456,696.9721L381.98367,697.4226L381.989,697.8746L381.96164,698.32526L381.90173,698.77277L381.80957,699.21484L381.68576,699.6488L381.53094,700.07263L381.3458,700.4842L381.1314,700.8812L380.8888,701.2619L380.61932,701.62396L380.32443,701.9654L380.0054,702.285L379.66437,702.58026L379.30267,702.85034L378.9221,703.0937L378.52515,703.3087L378.52515,703.3097L378.11462,703.49414L378.11462,703.4951L377.63962,703.66846C376.86356,703.95325,376.46533,704.8133,376.75015,705.58936C376.97253,706.1953,377.54553,706.57086,378.1555,706.57086C378.32675,706.57086,378.50092,706.54126,378.67105,706.4788L379.1965,706.28595C379.2304,706.2735,379.26385,706.2599,379.29678,706.245L379.80692,706.01465C379.83984,705.99976,379.87222,705.9837,379.904,705.9665L380.39615,705.6998C380.42792,705.6827,380.45905,705.6643,380.48947,705.64484L380.96103,705.34326C380.99146,705.32385,381.02118,705.3033,381.05014,705.2817L381.49866,704.9468C381.52762,704.9252,381.55576,704.9025,381.58307,704.8789L382.0062,704.51245C382.0335,704.4888,382.05994,704.4642,382.08545,704.4386L382.48096,704.04254C382.5065,704.01697,382.5311,703.9905,382.55472,703.96313L382.92053,703.5395C382.94415,703.51215,382.96677,703.48395,382.9883,703.45496L383.32254,703.006C383.34412,702.977,383.36462,702.94727,383.38403,702.91675L383.6849,702.44476C383.70435,702.4143,383.72266,702.3832,383.7398,702.3514L384.00574,701.8588C384.0229,701.827,384.0389,701.7947,384.05374,701.7617L384.28336,701.2512C384.29816,701.2183,384.3118,701.1848,384.3242,701.1509L384.51627,700.6251C384.5287,700.5912,384.53983,700.5568,384.54974,700.5221L384.7033,699.9838C384.71323,699.9491,384.72186,699.914,384.72925,699.87866L384.84344,699.3307C384.85083,699.29535,384.8569,699.2597,384.8617,699.2239L384.936,698.6691C384.9408,698.6333,384.9443,698.5973,384.94647,698.5612L384.98047,698.00183C384.98267,697.9657,384.98352,697.92957,384.9831,697.8934L384.97647,697.333C384.97604,697.2968,384.9743,697.2607,384.97125,697.2246L384.92407,696.6662C384.92102,696.6301,384.9167,696.59424,384.91104,696.55853L384.82352,696.00494C384.81787,695.96924,384.81094,695.9337,384.8027,695.89844L384.67532,695.3527C384.6671,695.3175,384.65762,695.2826,384.64685,695.24805L384.4803,694.71295C384.46954,694.6784,384.45755,694.6443,384.44434,694.6106L384.23944,694.0889C384.22623,694.0553,384.2118,694.0221,384.19617,693.9895L383.95404,693.4841C383.93842,693.4514,383.9216,693.4194,383.90366,693.388L383.62555,692.9014C383.6076,692.87,383.58853,692.8393,383.56836,692.80927L383.25574,692.3441C383.23557,692.3141,383.2143,692.2848,383.19202,692.25635L382.84656,691.81506C382.82425,691.78656,382.80093,691.7589,382.77664,691.7321L382.40012,691.317C382.37582,691.2902,382.35056,691.2643,382.32437,691.2393L381.91876,690.8526C381.89258,690.82764,381.86554,690.80365,381.83762,690.78064L381.40506,690.42426C381.37714,690.40125,381.34842,690.3793,381.3189,690.3584L380.8617,690.0343C380.83215,690.01337,380.8019,689.9935,380.77097,689.9748L380.29147,689.68463C380.0492,689.5381,379.78195,689.46826,379.51804,689.46826 Z"></path></g><g style="" fill="rgb(0,0,0)" fill-opacity="1.0" stroke-linejoin=" miter"><path d="M354.04248,636.9492L354.04248,636.9492L354.04248,636.9492L354.04248,636.9492L354.04248,636.9492L354.04248,636.9492L354.04248,636.9492L354.04248,636.9492L354.04248,636.9492L354.04248,636.9492 M354.04248,639.9429L354.04248,639.9429L354.04248,639.9429L354.04248,639.9429L354.04248,639.9429L354.04248,639.9429L354.04248,639.9429L354.04248,639.9429L354.04248,639.9429 Z"></path></g><g style="" fill="rgb(0,0,0)" fill-opacity="1.0" stroke-linejoin=" miter"><path d="M346.53064,704.73987L346.53064,704.73987L346.1118,704.7322L346.1905,704.73157L345.7718,704.7459L345.85052,704.7411L345.43317,704.77747L345.51144,704.7686L345.0966,704.8269L345.17444,704.81384L344.7632,704.8939L344.8402,704.87683L344.4338,704.97845L344.5097,704.95734L344.1092,705.0802L344.18396,705.05505L343.79047,705.19885L343.86374,705.16986L343.47836,705.33417L343.55005,705.3014L343.1748,705.4853L343.2444,705.44885L342.87933,705.65216L342.9469,705.6122L342.59302,705.83435L342.6587,705.79065L342.31696,706.0312L342.38,705.9843L342.0514,706.24243L342.11182,706.1923L341.7972,706.4673L341.85507,706.414L341.55533,706.70514L341.61038,706.6488L341.32635,706.9553L341.3782,706.8963L341.11066,707.2173C340.58136,707.8523,339.6375,707.938,339.0025,707.4087C338.3675,706.8794,338.2818,705.93555,338.8111,705.30054L338.8111,705.30054L339.07864,704.97955L339.1305,704.92053L339.41452,704.614L339.46957,704.5577L339.76932,704.26654L339.82718,704.21326L340.14178,703.9383L340.2022,703.8882L340.53082,703.63007L340.59387,703.5832L340.9356,703.34265L341.00128,703.29895L341.35516,703.0768L341.42273,703.0368L341.78778,702.8335L341.85736,702.79706L342.2326,702.61316L342.3043,702.5804L342.68967,702.4161L342.76294,702.3871L343.15643,702.2433L343.2312,702.21814L343.6317,702.0953L343.7076,702.07416L344.114,701.97253L344.191,701.95544L344.60223,701.87537L344.68008,701.8623L345.09494,701.804L345.17322,701.79517L345.59058,701.7588L345.6693,701.75397L346.088,701.7396L346.16672,701.739L346.58557,701.7467C347.4121,701.7619,348.06985,702.4442,348.0547,703.27075C348.03952,704.0973,347.35718,704.75507,346.53064,704.73987 Z"></path></g><g style="" fill="rgb(0,0,0)" fill-opacity="1.0" stroke-linejoin=" miter"><path d="M349.29092,709.4851L349.29092,709.4851L348.70944,709.81354L348.75333,709.7878L348.18332,710.1358L348.22644,710.10846L347.66864,710.4757L347.71066,710.447L347.16568,710.833L347.20682,710.8028L346.6753,711.20715L346.71527,711.17566L346.1978,711.59784L346.23706,711.5647L345.72763,712.0103L345.76584,711.9757L345.27206,712.4386L345.3092,712.4025L344.83173,712.8822L344.86755,712.845L344.4069,713.3409L344.4413,713.3025L343.99802,713.81396L344.0312,713.77435L343.60583,714.3008C343.08627,714.9438,342.14383,715.0438,341.50082,714.5243C340.85782,714.00476,340.75772,713.0623,341.27728,712.4193L341.27728,712.4193L341.70264,711.8929L341.7358,711.8533L342.1791,711.3418L342.21353,711.3034L342.6742,710.8075L342.71002,710.77026L343.1875,710.2906L343.22464,710.2545L343.7184,709.7916L343.75662,709.757L344.26605,709.3114L344.3053,709.27826L344.82275,708.8561L344.86273,708.8246L345.39426,708.4202L345.4354,708.39L345.98038,708.004L346.0224,707.97534L346.5802,707.6081L346.62332,707.58075L347.19333,707.2327L347.2372,707.207L347.8187,706.87854C348.53848,706.472,349.45157,706.7259,349.85812,707.4457C350.26468,708.16547,350.0107,709.07855,349.29092,709.4851 Z"></path></g><g style="" fill="rgb(0,0,0)" fill-opacity="1.0" stroke-linejoin=" miter"><path d="M352.5392,714.66583L352.5392,714.66583L352.19193,714.87244L352.24936,714.8365L351.91177,715.0586L351.96774,715.01996L351.64056,715.2572L351.6945,715.2162L351.37842,715.46796L351.4306,715.42444L351.12628,715.6903L351.17648,715.6444L350.88455,715.9238L350.93243,715.87585L350.65344,716.1682L350.69916,716.11804L350.43372,716.4227L350.47696,716.3708L350.2286,716.6833L350.26904,716.63L350.03494,716.95325L350.07315,716.8979L349.85376,717.2314L349.88928,717.1747L349.68506,717.5176L349.7181,717.4591L349.52945,717.81085L349.5598,717.7511L349.3871,718.11096L349.4148,718.04974L349.2584,718.417L349.28323,718.3549L349.1434,718.72876C348.8538,719.50305,347.99133,719.89594,347.21704,719.6063C346.44275,719.3167,346.04984,718.4542,346.33945,717.67993L346.33945,717.67993L346.47928,717.3061L346.50412,717.244L346.66052,716.8768L346.68823,716.81555L346.86096,716.4557L346.89133,716.39594L347.08,716.0442L347.11304,715.9857L347.31726,715.6428L347.35278,715.5861L347.57217,715.2526L347.61038,715.19727L347.84448,714.874L347.88492,714.82074L348.13327,714.50824L348.1765,714.4563L348.44196,714.1516L348.48767,714.10144L348.76666,713.8091L348.81454,713.7611L349.10648,713.4817L349.15668,713.4358L349.461,713.1699L349.51318,713.1264L349.82925,712.87463L349.88318,712.8336L350.21036,712.5964L350.26633,712.55774L350.6039,712.33563L350.66135,712.2997L351.00864,712.0931C351.7191,711.6704,352.63766,711.90375,353.06033,712.6142C353.483,713.32465,353.24966,714.24316,352.5392,714.66583 Z"></path></g><g style="" fill="rgb(0,0,0)" fill-opacity="1.0" stroke-linejoin=" miter"><path d="M342.9865,669.85693L342.9865,669.85693L342.9865,669.85693L342.9865,669.85693L342.9865,669.85693L342.9865,669.85693L342.9865,669.85693L342.9865,669.85693L342.9865,669.85693L342.9865,669.85693 M342.9865,672.8506L342.9865,672.8506L342.9865,672.8506L342.9865,672.8506L342.9865,672.8506L342.9865,672.8506L342.9865,672.8506L342.9865,672.8506L342.9865,672.8506 Z"></path></g><g style="" fill="rgb(0,0,0)" fill-opacity="1.0" stroke-linejoin=" miter"><path d="M367.42947,702.8346L367.42947,702.8356L367.42838,702.83704L367.42633,702.84125L367.43,702.8422Q367.4406,702.8536,367.4509,702.86566Q367.46344,702.8804,367.4803,702.9017L367.49808,702.9247L367.49808,702.92566Q367.50082,702.9208,367.50528,702.9144L367.5089,702.9154Q367.47687,702.87885,367.4419,702.84344L367.4331,702.8346L367.42947,702.8356 Z"></path></g><g style="" fill="rgb(0,0,0)" fill-opacity="1.0" stroke-linejoin=" miter"><path d="M376.17816,704.3352L376.156,704.4225Q376.0693,704.7642,375.91998,705.32025L375.36563,707.2194L376.27423,707.5172Q376.47333,707.5681,376.5301,707.57465Q376.67087,707.59467,376.7031,707.5879Q376.9173,707.5777,377.10437,707.52856Q377.4784,707.43024,377.74323,707.1767Q377.87567,707.04987,377.9808,706.8842L378.07913,706.70886Q378.15823,706.5269,378.17908,706.4463Q378.20193,706.3392,378.20953,705.9663Q378.19495,705.8258,378.1681,705.72253Q378.0856,705.45264,378.05084,705.40784Q377.9497,705.2096,377.78757,705.04205Q377.52988,704.796,377.3073,704.7113Q377.24768,704.6857,377.18622,704.666L376.17816,704.3352 Z"></path></g><g style="" fill="rgb(0,0,0)" fill-opacity="1.0" stroke-linejoin=" miter"><path d="M369.14072,701.89087L369.14072,701.89087L369.73322,701.93353L369.79886,701.93976L370.38892,702.0085L370.4546,702.0176L371.04105,702.11237L371.10596,702.1243L371.68765,702.2449L371.75195,702.2597L372.32773,702.40576L372.39166,702.42346L372.96045,702.5949L373.02307,702.6153L373.58374,702.8116L373.64612,702.835L374.20212,703.0579L374.2633,703.08405L374.80884,703.3314L374.86905,703.36035L375.403,703.63184L375.4616,703.66327L375.98297,703.9582L376.0403,703.9924L376.54803,704.31024L376.60373,704.34686L377.09677,704.687L377.15085,704.72614L377.62827,705.08795C378.2871,705.5873,378.41644,706.5261,377.9171,707.185C377.4178,707.8439,376.47894,707.97314,375.8201,707.4738L375.8201,707.4738L375.34268,707.112L375.39676,707.1511L374.90372,706.811L374.9594,706.8476L374.4517,706.5297L374.50903,706.5639L373.98767,706.269L374.04626,706.3004L373.5123,706.02893L373.5725,706.05786L373.02698,705.8105L373.08817,705.8366L372.53217,705.6137L372.59454,705.63715L372.03387,705.44086L372.0965,705.46124L371.5277,705.2898L371.59164,705.3075L371.01587,705.16144L371.08017,705.1763L370.49847,705.0557L370.5634,705.0677L369.97693,704.9729L370.0426,704.982L369.45255,704.91327L369.5182,704.9195L368.9257,704.87683C368.10114,704.81744,367.48087,704.1009,367.54025,703.27637C367.59964,702.45184,368.31616,701.8315,369.14072,701.89087 Z"></path></g><g style="" fill="rgb(0,0,0)" fill-opacity="1.0" stroke-linejoin=" miter"><path d="M367.70905,706.82684L367.70905,706.82684L368.19495,706.99347L368.26788,707.0206L368.74445,707.2123L368.8161,707.2433L369.28204,707.45953L369.35196,707.4942L369.806,707.73444L369.87378,707.7726L370.3147,708.0361L370.38065,708.0779L370.80725,708.364L370.87094,708.4092L371.28204,708.71716L371.34308,708.7654L371.7376,709.0943L371.7934,709.14325L372.13406,709.45715L372.1847,709.50604L372.51025,709.83563L372.55856,709.8869L372.86826,710.23145L372.91388,710.2846L373.2071,710.64325L373.25043,710.6989L373.52643,711.071L373.56686,711.1283L373.82513,711.5129L373.86307,711.57227L374.10294,711.96857L374.1379,712.0296L374.35892,712.43677L374.39096,712.4992L374.59262,712.91626C374.95248,713.6605,374.64087,714.55554,373.89664,714.9154C373.1524,715.27527,372.25735,714.96375,371.8975,714.2195L371.8975,714.2195L371.69583,713.8024L371.72787,713.86487L371.50687,713.4577L371.54184,713.51874L371.30197,713.12244L371.3399,713.1818L371.08163,712.79724L371.12207,712.85455L370.84607,712.4825L370.8894,712.53815L370.5962,712.1795L370.6418,712.23267L370.33212,711.8881L370.38043,711.9394L370.05487,711.6098L370.1055,711.6587L369.76483,711.3448L369.82062,711.39374L369.4261,711.0648L369.48712,711.11304L369.07602,710.80505L369.1397,710.8502L368.7131,710.5641L368.77905,710.6059L368.33813,710.3424L368.4059,710.38055L367.95187,710.1403L368.0218,710.175L367.55585,709.95874L367.6275,709.98975L367.15094,709.7981L367.22388,709.82526L366.73798,709.6586C365.956,709.3905,365.53946,708.5392,365.80762,707.7572C366.07578,706.9752,366.92706,706.5587,367.70905,706.82684 Z"></path></g><g style="" fill="rgb(0,0,0)" fill-opacity="1.0" stroke-linejoin=" miter"><path d="M364.91898,712.1319L364.91898,712.1319L365.2759,712.4303L365.31818,712.467L365.6637,712.7785L365.7047,712.8169L366.0383,713.1412L366.07773,713.18097L366.39896,713.5175L366.43686,713.5588L366.74527,713.9071L366.78165,713.94977L367.07678,714.3094L367.1115,714.35333L367.393,714.72375L367.42627,714.7693L367.69724,715.1552L367.72897,715.2023L367.9851,715.5982L368.0151,715.6466L368.256,716.052L368.28403,716.10126L368.5094,716.51544L368.5356,716.56586L368.74512,716.98834L368.76938,717.0397L368.9627,717.4698L368.98502,717.5221L369.16187,717.9592C369.4719,718.7256,369.102,719.5981,368.33566,719.90814C367.56934,720.2182,366.69675,719.84827,366.38672,719.0819L366.38672,719.0819L366.20987,718.6448L366.23218,718.6971L366.03885,718.26697L366.0631,718.3183L365.8536,717.8958L365.87982,717.9462L365.65445,717.53204L365.68246,717.5813L365.44156,717.1759L365.47156,717.2243L365.21542,716.82837L365.24716,716.8754L364.9762,716.4895L365.00946,716.53503L364.72797,716.1646L364.7627,716.20856L364.46756,715.84894L364.50394,715.8916L364.19553,715.5433L364.23343,715.58453L363.9122,715.248L363.95163,715.2878L363.61804,714.9635L363.65906,715.0019L363.31354,714.69037L363.3558,714.72705L362.99887,714.42865C362.36462,713.89844,362.28033,712.9544,362.81055,712.3202C363.34076,711.686,364.28473,711.6017,364.91898,712.1319 Z"></path></g><g style="" fill="rgb(0,0,0)" fill-opacity="1.0" stroke-linejoin=" miter"><path d="M358.9866,666.9636L358.9866,666.9636L358.9866,666.9636L358.9866,666.9636L358.9866,666.9636L358.9866,666.9636L358.9866,666.9636L358.9866,666.9636L358.9866,666.9636L358.9866,666.9636 M358.9866,669.9573L358.9866,669.9573L358.9866,669.9573L358.9866,669.9573L358.9866,669.9573L358.9866,669.9573L358.9866,669.9573L358.9866,669.9573L358.9866,669.9573 Z"></path></g><g style="" fill="rgb(0,0,0)" fill-opacity="1.0" stroke-linejoin=" miter"><path d="M370.0323,696.382L370.0323,696.382C369.87466,697.8134,368.57346,698.7742,367.2034,698.6232L367.20352,698.6232C365.8336,698.4724,364.7725,697.2515,364.93018,695.8201L364.93015,695.8202C365.0877,694.38885,366.38892,693.428,367.7589,693.5788L367.75903,693.5788C369.12897,693.72974,370.18994,694.9506,370.0323,696.3821L370.0323,696.382 M367.05664,696.0544L367.05664,696.0543C367.02484,696.343,367.23572,696.53296,367.4312,696.5545L367.43134,696.5545C367.62704,696.57605,367.87408,696.4364,367.90585,696.1478L367.90582,696.1479C367.93765,695.85895,367.72668,695.66907,367.5311,695.6475L367.53122,695.6475C367.3358,695.626,367.08844,695.7655,367.05664,696.0544 Z"></path></g><g style="" fill="rgb(0,0,0)" fill-opacity="1.0" stroke-linejoin=" miter"><path d="M343.68082,660.57477L343.68082,660.57477L343.68082,660.57477L343.68082,660.57477L343.68082,660.57477L343.68082,660.57477L343.68082,660.57477L343.68082,660.57477L343.68082,660.57477L343.68082,660.57477 M343.68082,663.5684L343.68082,663.5684L343.68082,663.5684L343.68082,663.5684L343.68082,663.5684L343.68082,663.5684L343.68082,663.5684L343.68082,663.5684L343.68082,663.5684 Z"></path></g><g style="" fill="rgb(0,0,0)" fill-opacity="1.0" stroke-linejoin=" miter"><path d="M370.0323,696.382L370.0323,696.382C369.87466,697.8134,368.57346,698.7742,367.2034,698.6232L367.20352,698.6232C365.8336,698.4724,364.7725,697.2515,364.93018,695.8201L364.93015,695.8202C365.0877,694.38885,366.38892,693.428,367.7589,693.5788L367.75903,693.5788C369.12897,693.72974,370.18994,694.9506,370.0323,696.3821L370.0323,696.382 M367.05664,696.0544L367.05664,696.0543C367.02484,696.343,367.23572,696.53296,367.4312,696.5545L367.43134,696.5545C367.62704,696.57605,367.87408,696.4364,367.90585,696.1478L367.90582,696.1479C367.93765,695.85895,367.72668,695.66907,367.5311,695.6475L367.53122,695.6475C367.3358,695.626,367.08844,695.7655,367.05664,696.0544 Z"></path></g><g style="" fill="rgb(0,0,0)" fill-opacity="1.0" stroke-linejoin=" miter"><path d="M350.87625,696.29626L350.87625,696.29626C350.71863,697.7272,349.41766,698.6886,348.04736,698.5376L348.04755,698.5376C346.67725,698.3868,345.61658,697.16547,345.77405,695.7345L345.77408,695.7343C345.93176,694.303,347.23288,693.3422,348.60284,693.49304L348.603,693.49304C349.973,693.644,351.0339,694.86505,350.87625,696.29626L350.87625,696.29626 M347.9006,695.9685L347.9006,695.9685C347.86877,696.2573,348.07953,696.4472,348.27518,696.46875L348.27533,696.46875C348.47076,696.49023,348.71793,696.3509,348.74973,696.0621L348.74976,696.0619C348.7815,695.7734,348.57092,695.58344,348.37506,695.5619L348.37524,695.5619C348.1792,695.5403,347.9324,695.6799,347.9006,695.9685 Z"></path></g></g></svg>