<svg xmlns="http://www.w3.org/2000/svg" xmlns:xlink="http://www.w3.org/1999/xlink" xml:space="preserve" version="1.1" style="shape-rendering:geometricPrecision;text-rendering:geometricPrecision;image-rendering:optimizeQuality;" viewBox="0 0 333.33 333.33" x="0px" y="0px" fill-rule="evenodd" clip-rule="evenodd"><defs><style type="text/css">
   
    .fil0 {fill:black;fill-rule:nonzero}
   
  </style></defs><g><path class="fil0" d="M198.25 19.97l9.78 14.08c2.68,3.86 6.17,6.68 10.1,8.3 3.97,1.65 8.45,2.13 13.06,1.31l16.88 -3.04c6.37,-1.15 12.57,-0.78 18.32,1.02 5.81,1.82 11.13,5.05 15.69,9.61 4.56,4.56 7.78,9.87 9.61,15.69 1.8,5.76 2.17,11.95 1.02,18.32l-3.04 16.88c-0.83,4.6 -0.34,9.08 1.31,13.06 1.63,3.93 4.44,7.42 8.3,10.1l14.08 9.78c5.28,3.67 9.39,8.32 12.22,13.73 2.83,5.41 4.31,11.44 4.31,17.86 0,6.41 -1.48,12.45 -4.31,17.86 -2.83,5.41 -6.94,10.06 -12.22,13.73l-14.08 9.78c-3.86,2.68 -6.68,6.17 -8.3,10.1 -1.65,3.97 -2.13,8.45 -1.31,13.06l3.04 16.88c1.15,6.37 0.78,12.57 -1.02,18.32 -1.82,5.81 -5.05,11.13 -9.61,15.69 -4.56,4.56 -9.87,7.78 -15.69,9.61 -5.76,1.8 -11.95,2.17 -18.32,1.02l-16.88 -3.04c-4.6,-0.83 -9.08,-0.34 -13.06,1.31 -3.93,1.63 -7.42,4.44 -10.1,8.3l-9.78 14.08c-3.67,5.28 -8.32,9.39 -13.73,12.22 -5.41,2.83 -11.44,4.31 -17.86,4.31 -6.41,0 -12.45,-1.48 -17.86,-4.31 -5.41,-2.83 -10.06,-6.94 -13.73,-12.22l-9.78 -14.08c-2.68,-3.86 -6.17,-6.68 -10.1,-8.3 -3.97,-1.65 -8.45,-2.13 -13.06,-1.31l-16.88 3.04c-6.37,1.15 -12.57,0.78 -18.32,-1.02 -5.81,-1.82 -11.13,-5.05 -15.69,-9.61 -4.56,-4.56 -7.78,-9.87 -9.61,-15.69 -1.8,-5.76 -2.17,-11.95 -1.02,-18.32l3.04 -16.88c0.83,-4.6 0.34,-9.08 -1.31,-13.06 -1.63,-3.93 -4.44,-7.42 -8.3,-10.1l-14.08 -9.78c-5.28,-3.67 -9.39,-8.32 -12.22,-13.73 -2.83,-5.41 -4.31,-11.44 -4.31,-17.86 0,-6.41 1.48,-12.45 4.31,-17.86 2.83,-5.41 6.94,-10.06 12.22,-13.73l14.08 -9.78c3.86,-2.68 6.68,-6.17 8.3,-10.1 1.65,-3.97 2.13,-8.45 1.31,-13.06l-3.04 -16.88c-1.15,-6.37 -0.78,-12.57 1.02,-18.32 1.82,-5.81 5.05,-11.13 9.61,-15.69 4.56,-4.56 9.87,-7.78 15.69,-9.61 5.76,-1.8 11.95,-2.17 18.32,-1.02l16.88 3.04c4.6,0.83 9.08,0.34 13.06,-1.31 3.93,-1.63 7.42,-4.44 10.1,-8.3l9.78 -14.08c3.67,-5.28 8.32,-9.39 13.73,-12.22 5.41,-2.83 11.44,-4.31 17.86,-4.31 6.41,0 12.45,1.48 17.86,4.31 5.41,2.83 10.06,6.94 13.73,12.22zm-50.71 113.87c1.32,-3.99 5.63,-6.16 9.62,-4.84 3.99,1.32 6.16,5.63 4.84,9.62 -0.04,0.12 -14.63,42.86 29.95,42.86l0 0.03 0.24 -0c11.22,-0.05 18.84,-3.88 23.56,-9.74 4.92,-6.09 7.06,-14.57 7.06,-23.48l0.03 0 0 -0.26c-0.11,-24.38 -14.67,-40.13 -33.59,-47.06 -7.93,-2.9 -16.61,-4.3 -25.34,-4.19 -8.75,0.11 -17.56,1.74 -25.71,4.9 -20.96,8.12 -37.59,26.63 -37.59,55.79 0,9.15 0.97,17.33 2.76,24.59 4.89,19.78 15.99,33.31 30.33,41.89 14.71,8.8 32.98,12.56 51.63,12.56 12.22,0 24.5,-1.6 36.03,-4.45 4.09,-1.01 8.23,1.5 9.23,5.59 1.01,4.09 -1.5,8.23 -5.59,9.24 -12.76,3.15 -26.3,4.93 -39.67,4.93 -21.17,0 -42.16,-4.42 -59.46,-14.77 -17.68,-10.58 -31.35,-27.18 -37.32,-51.34 -2.11,-8.52 -3.24,-17.91 -3.24,-28.24 0,-36.53 20.97,-59.78 47.4,-70.01 9.85,-3.81 20.47,-5.78 31.03,-5.92 10.57,-0.14 21.1,1.56 30.72,5.09 24.57,8.99 43.48,29.51 43.63,61.33l0 0.32 0.03 0c0,12.13 -3.17,24.01 -10.46,33.05 -7.48,9.27 -18.99,15.34 -35.39,15.42l-0.3 0 0 0.03c-65.9,0 -44.47,-62.76 -44.41,-62.94zm47.94 -91.06l-9.78 -14.09c-2.28,-3.28 -5.07,-5.78 -8.23,-7.43 -3.16,-1.65 -6.81,-2.51 -10.81,-2.51 -4,0 -7.65,0.86 -10.81,2.51 -3.16,1.65 -5.95,4.16 -8.23,7.43l-9.78 14.09c-4.36,6.27 -10.19,10.92 -16.85,13.68 -6.61,2.74 -14,3.56 -21.54,2.2l-16.88 -3.04c-3.87,-0.7 -7.63,-0.48 -11.09,0.61 -3.41,1.07 -6.6,3.04 -9.41,5.84 -2.81,2.81 -4.77,6 -5.84,9.41 -1.08,3.46 -1.3,7.22 -0.61,11.09l3.04 16.88c1.36,7.54 0.54,14.93 -2.2,21.54 -2.76,6.66 -7.41,12.49 -13.68,16.85l-14.09 9.78c-3.28,2.28 -5.78,5.07 -7.43,8.23 -1.65,3.16 -2.51,6.81 -2.51,10.81 0,4 0.86,7.65 2.51,10.81 1.65,3.16 4.16,5.95 7.43,8.23l14.09 9.78c6.27,4.36 10.92,10.19 13.68,16.85 2.74,6.61 3.56,14 2.2,21.54l-3.04 16.88c-0.7,3.87 -0.48,7.63 0.61,11.09 1.07,3.41 3.04,6.6 5.84,9.41 2.81,2.81 6,4.77 9.41,5.84 3.46,1.08 7.22,1.3 11.09,0.61l16.88 -3.04c7.54,-1.36 14.93,-0.54 21.54,2.2 6.66,2.76 12.49,7.41 16.85,13.68l9.78 14.09c2.28,3.28 5.07,5.78 8.23,7.43 3.16,1.65 6.81,2.51 10.81,2.51 4,0 7.65,-0.86 10.81,-2.51 3.16,-1.65 5.95,-4.16 8.23,-7.43l9.78 -14.09c4.36,-6.27 10.19,-10.92 16.85,-13.68 6.61,-2.74 14,-3.56 21.54,-2.2l16.88 3.04c3.87,0.7 7.63,0.48 11.09,-0.61 3.41,-1.07 6.6,-3.04 9.41,-5.84 2.81,-2.81 4.77,-6 5.84,-9.41 1.08,-3.47 1.3,-7.22 0.61,-11.09l-3.04 -16.88c-1.36,-7.54 -0.54,-14.93 2.2,-21.54 2.76,-6.66 7.41,-12.49 13.68,-16.85l14.09 -9.78c3.28,-2.28 5.78,-5.07 7.43,-8.23 1.65,-3.16 2.51,-6.81 2.51,-10.81 0,-4 -0.86,-7.65 -2.51,-10.81 -1.65,-3.16 -4.16,-5.95 -7.43,-8.23l-14.09 -9.78c-6.27,-4.36 -10.92,-10.19 -13.68,-16.85 -2.74,-6.61 -3.56,-14 -2.2,-21.54l3.04 -16.88c0.7,-3.87 0.48,-7.63 -0.61,-11.09 -1.07,-3.41 -3.04,-6.6 -5.84,-9.41 -2.81,-2.81 -6,-4.77 -9.41,-5.84 -3.47,-1.08 -7.22,-1.3 -11.09,-0.61l-16.88 3.04c-7.54,1.36 -14.93,0.54 -21.54,-2.2 -6.66,-2.76 -12.49,-7.41 -16.85,-13.68z"></path></g></svg>